<?xml version='1.0' encoding='utf-8'?>
<svg xmlns="http://www.w3.org/2000/svg" width="55.959mm" height="51.493mm" version="1.1" viewBox="0 0 55.959 51.493"> <g transform="translate(-86.283 -79.707)"> <path d="m129.27 130.2c-5.8418-4e-4 -11.529-1.8957-16.203-5.4012-4.8674-3.6518-8.2963-8.8259-9.8392-14.637 0.76767-0.44496 1.5643-0.84526 2.3869-1.1968l0.0207-8e-3c0.426-0.18189 0.85593-0.34904 1.2898-0.50281 1.22 5.2251 4.2092 9.8926 8.5442 13.145 3.9809 2.9857 8.8234 4.602 13.8 4.6023 2.4073-3e-3 4.7496-0.49328 7.0032-1.2201l0.43046-0.14004-0.0951-0.4408c-1.2936-6.0431-4.8522-11.381-10.115-14.697 0.24631-1.032 0.43547-2.0821 0.56379-3.1461 0.044-0.36293 0.0799-0.72656 0.10956-1.0898 0.2015 0.1071 0.40152 0.2167 0.59944 0.33073l2e-3 1e-3 1e-3 1e-3c7.3523 4.2495 12.279 11.716 13.294 20.147l0.18138 1.4862-1.3803 0.59066c-3.3486 1.4319-6.9521 2.1722-10.594 2.1766zm-29.94-0.0124c-3.6198 8e-3 -7.2509-0.71105-10.667-2.1709l-1.3777-0.58601 0.1788-1.4909c0.43423-3.616 1.5947-7.1065 3.4117-10.262 2.9213-5.059 7.4067-9.0373 12.779-11.332 5.5962-2.3894 11.792-2.7716 17.596-1.202 2e-3 0.8873-0.0502 1.7773-0.1571 2.6655l-3e-3 0.0217c-0.0555 0.45987-0.12602 0.91624-0.2098 1.3689-5.1351-1.556-10.672-1.3012-15.656 0.82682-4.5761 1.9548-8.3967 5.3401-10.885 9.6495-1.2008 2.0865-1.9475 4.36-2.4448 6.675l-0.0941 0.44287 0.42891 0.13798c5.8803 1.9013 12.282 1.4883 17.786-1.4113 0.7706 0.72931 1.5854 1.4182 2.4427 2.0614 0.29232 0.21954 0.58906 0.43241 0.88884 0.63975-0.1935 0.12096-0.38882 0.2396-0.58653 0.35398l-2e-3 1e-3 -1e-3 5.2e-4c-4.1379 2.3864-8.7741 3.5995-13.428 3.6101zm18.977-7.922c-0.76919-0.44234-1.5141-0.93199-2.2298-1.4686l-0.0176-0.0134c-0.37052-0.27798-0.73042-0.5672-1.0806-0.86609 3.915-3.6692 6.4626-8.5913 7.1117-13.972 0.59521-4.9404-0.42617-9.9421-2.914-14.252-1.2066-2.0831-2.8022-3.8667-4.5584-5.455l-0.33642-0.30282-0.33383 0.30282c-4.5867 4.1418-7.4301 9.8924-7.6708 16.109-1.0169 0.3027-2.0209 0.66381-3.0065 1.0847-0.3363 0.14338-0.66894 0.29415-0.99839 0.4501-8e-3 -0.22806-0.0132-0.4563-0.0134-0.68471v-4e-3c4e-3 -8.492 4.0069-16.492 10.801-21.586l1.1968-0.9002 1.2015 0.9002c2.9144 2.184 5.3569 4.9343 7.1815 8.0858 2.9206 5.0594 4.1233 10.933 3.4241 16.733-0.72885 6.0411-3.4952 11.597-7.7566 15.839z" color="#000000" fill-rule="evenodd" style="-inkscape-stroke:none"/> </g> </svg>